<svg width="100%" height="100%" id="svg" viewBox="0 0 1440 700" xmlns="http://www.w3.org/2000/svg" class="transition duration-300 ease-in-out delay-150"><defs><linearGradient id="gradient" x1="0%" y1="50%" x2="100%" y2="50%"><stop offset="5%" stop-color="#7bdcb588"></stop><stop offset="95%" stop-color="#00d08488"></stop></linearGradient></defs><path d="M 0,700 C 0,700 0,233 0,233 C 105.64285714285714,262.32142857142856 211.28571428571428,291.64285714285717 325,300 C 438.7142857142857,308.35714285714283 560.4999999999999,295.75 703,258 C 845.5000000000001,220.25000000000003 1008.7142857142858,157.35714285714286 1135,149 C 1261.2857142857142,140.64285714285714 1350.642857142857,186.82142857142856 1440,233 C 1440,233 1440,700 1440,700 Z" stroke="none" stroke-width="0" fill="url(#gradient)" class="transition-all duration-300 ease-in-out delay-150 path-0"></path><defs><linearGradient id="gradient" x1="0%" y1="50%" x2="100%" y2="50%"><stop offset="5%" stop-color="#7bdcb5ff"></stop><stop offset="95%" stop-color="#00d084ff"></stop></linearGradient></defs><path d="M 0,700 C 0,700 0,466 0,466 C 153.67857142857144,440.8928571428571 307.3571428571429,415.7857142857143 413,443 C 518.6428571428571,470.2142857142857 576.25,549.75 676,544 C 775.75,538.25 917.6428571428571,447.2142857142857 1052,420 C 1186.357142857143,392.7857142857143 1313.1785714285716,429.3928571428571 1440,466 C 1440,466 1440,700 1440,700 Z" stroke="none" stroke-width="0" fill="url(#gradient)" class="transition-all duration-300 ease-in-out delay-150 path-1"></path></svg>